<svg xmlns="http://www.w3.org/2000/svg" width="28" height="28" viewBox="0 0 28 28">
    <defs>
        <style>
            .cls-2{fill:#e65358}.cls-3{fill:#707171}.cls-6{fill:#da4449}.cls-9{fill:#ffda00}.cls-11{fill:#1e2e59}
        </style>
    </defs>
    <g id="Car" transform="translate(-244 -327)">
        <g id="Group_15177" transform="translate(-15.679 155.872)">
            <path id="Path_14691" d="M266.7 183.454h-2.419a.783.783 0 0 1-.782-.782.782.782 0 0 1 .782-.782h1.635a.782.782 0 0 1 .782.782v.784z" class="cls-2"/>
            <path id="Path_14692" d="M280.668 183.454h2.417a.783.783 0 0 0 .782-.782.782.782 0 0 0-.782-.782h-1.635a.782.782 0 0 0-.782.782z" class="cls-2"/>
            <path id="Path_14693" d="M267.835 193.039h-2.442a.517.517 0 0 1-.516-.517v-2.706h3.474v2.709a.518.518 0 0 1-.516.514z" class="cls-3"/>
            <path id="Path_14694" d="M281.964 193.039h-2.441a.517.517 0 0 1-.516-.517v-2.706h3.475v2.709a.518.518 0 0 1-.518.514z" class="cls-3"/>
            <path id="Path_14695" fill="#d4d5eb" d="M266.876 179.009l-1.609 6.074h16.823l-1.609-6.074a2.1 2.1 0 0 0-2.029-1.561H268.9a2.1 2.1 0 0 0-2.024 1.561z"/>
            <path id="Path_14696" fill="#c1c2d9" d="M280.481 179.009a2.1 2.1 0 0 0-2.029-1.561h-1.719a2.1 2.1 0 0 1 2.029 1.561l1.61 6.074h1.719z"/>
            <path id="Path_14697" d="M283.678 188.978h-20v-2.244a3.27 3.27 0 0 1 3.27-3.27h13.46a3.27 3.27 0 0 1 3.27 3.27z" class="cls-2"/>
            <path id="Path_14698" d="M280.408 183.462h-1.719a3.27 3.27 0 0 1 3.27 3.27v2.246h1.723v-2.244a3.27 3.27 0 0 0-3.268-3.272z" class="cls-6"/>
            <path id="Path_14699" fill="#e6e6e6" d="M283.793 191.056h-20.228a.565.565 0 0 1-.564-.564v-.94a.564.564 0 0 1 .564-.564h20.228a.563.563 0 0 1 .564.564v.94a.564.564 0 0 1-.564.564z"/>
            <path id="Path_14700" fill="#d8e9f8" d="M283.8 188.988h-1.719a.563.563 0 0 1 .564.564v.94a.564.564 0 0 1-.564.564h1.719a.564.564 0 0 0 .564-.564v-.94a.563.563 0 0 0-.564-.564z"/>
            <ellipse id="Ellipse_998" cx="1.265" cy="1.272" class="cls-9" rx="1.265" ry="1.272" transform="translate(265.747 185.217)"/>
            <ellipse id="Ellipse_999" cx="1.265" cy="1.272" class="cls-9" rx="1.265" ry="1.272" transform="translate(279.081 185.217)"/>
            <path id="Path_14701" fill="#e9f5fd" d="M270.18 185.922h7v1.468h-7z"/>
            <path id="Path_14702" d="M278.453 177.448h-9.547a2.1 2.1 0 0 0-2.029 1.561h13.6a2.1 2.1 0 0 0-2.024-1.561z" class="cls-2"/>
            <path id="Path_14703" d="M278.452 177.448h-1.719a2.1 2.1 0 0 1 2.029 1.561h1.719a2.1 2.1 0 0 0-2.029-1.561z" class="cls-6"/>
            <g id="Group_15184">
                <path id="Path_14707" d="M269.826 177.128h-.92a2.422 2.422 0 0 0-2.336 1.787v.01l-.7 2.639h-1.583a1.105 1.105 0 0 0 0 2.211h.625a3.587 3.587 0 0 0-1.554 2.956v1.959a.887.887 0 0 0-.679.861v.941a.888.888 0 0 0 .886.886h.99v1.144a.839.839 0 0 0 .839.839h2.441a.839.839 0 0 0 .839-.839v-1.144h10.01v1.144a.839.839 0 0 0 .839.839h2.442a.839.839 0 0 0 .839-.839v-1.144h.99a.888.888 0 0 0 .885-.881v-.941a.887.887 0 0 0-.679-.856v-1.963a3.587 3.587 0 0 0-1.554-2.956h.639a1.105 1.105 0 1 0 0-2.211h-1.593l-.7-2.639v-.011a2.421 2.421 0 0 0-2.336-1.787h-8.63zm1.69.645h6.936a1.777 1.777 0 0 1 1.555.917h-12.656a1.777 1.777 0 0 1 1.555-.917h2.61zm-4.391 1.559h13.108l1.037 3.913a3.526 3.526 0 0 0-.862-.1H266.95a3.532 3.532 0 0 0-.862.1zm15.961 2.878a.461.461 0 0 1 0 .922h-1.179l-.244-.922zm-19.258.46a.459.459 0 0 1 .46-.46h1.412l-.244.922h-1.164a.461.461 0 0 1-.46-.462zm4.2 9.853a.194.194 0 0 1-.194.194h-2.441a.194.194 0 0 1-.194-.194v-1.144h2.83v1.144zm14.129 0a.194.194 0 0 1-.194.194h-2.44a.194.194 0 0 1-.194-.194v-1.144h2.83zm-.915-3.213h2.551a.242.242 0 0 1 .242.242v.941a.242.242 0 0 1-.242.242h-20.228a.242.242 0 0 1-.242-.242v-.941a.242.242 0 0 1 .242-.242h17.677zm-1.7-.645H264v-1.934a2.951 2.951 0 0 1 2.948-2.948h13.458a2.951 2.951 0 0 1 2.948 2.948v1.934h-3.814z" class="cls-11"/>
                <path id="Path_14708" d="M267.008 184.894a1.6 1.6 0 1 0 1.587 1.6v-.008a1.594 1.594 0 0 0-1.587-1.592zm0 2.546a.95.95 0 1 1 .942-.958v.007a.947.947 0 0 1-.942.951z" class="cls-11"/>
                <path id="Path_14709" d="M281.934 186.489a1.587 1.587 0 1 0-1.587 1.594 1.586 1.586 0 0 0 1.587-1.594zm-1.587.951a.95.95 0 1 1 .942-.958v.007a.948.948 0 0 1-.943.951z" class="cls-11"/>
                <path id="Path_14710" d="M277.174 185.6h-7a.322.322 0 0 0-.322.322v1.465a.322.322 0 0 0 .322.321h7a.322.322 0 0 0 .322-.321v-1.464a.322.322 0 0 0-.322-.322zm-.322 1.465H270.5v-.82h6.352z" class="cls-11"/>
            </g>
        </g>
    </g>
</svg>
