<svg xmlns="http://www.w3.org/2000/svg" width="50" height="50" viewBox="0 0 50 50">
    <path data-name="Rectangle 73074" style="fill:#fff" d="M0 0h50v50H0z"/>
    <path data-name="Path 147536" d="M30.706 40h-2.971l-1.485 5.2-2.168-1.735.272 2.316.8 6.847-.39 2.972h8.913V40.8a5.831 5.831 0 0 0-2.971-.8z" transform="translate(-4.681 -8.776)" style="fill:#d1e7f8"/>
    <path data-name="Path 147537" d="M28.282 14.884h-.743v-.743a9.649 9.649 0 0 0-5.2-8.56 9.507 9.507 0 0 0-2.229-.835v-.26A1.485 1.485 0 0 0 18.627 3h-1.486a1.485 1.485 0 0 0-1.485 1.485v.26a9.656 9.656 0 0 0-7.427 9.4v.743h-.744a1.485 1.485 0 1 0 0 2.971h20.8a1.485 1.485 0 0 0 0-2.971z" transform="translate(-.029 .743)" style="fill:#ffcd00"/>
    <path data-name="Path 147538" d="M32.141 14.884H31.4v-.743a9.649 9.649 0 0 0-5.2-8.56 9.507 9.507 0 0 0-2.229-.835v-.26A1.485 1.485 0 0 0 22.485 3H21a1.485 1.485 0 0 1 1.485 1.485v.26a9.507 9.507 0 0 1 2.228.835 9.649 9.649 0 0 1 5.2 8.561v.743h.743a1.485 1.485 0 0 1 0 2.971h1.485a1.485 1.485 0 1 0 0-2.971z" transform="translate(-3.888 .743)" style="fill:#ddb200"/>
    <path data-name="Path 147539" d="m23.546 43.464 2.168 1.736L27.2 40h-2.229L22 42.228z" transform="translate(-4.145 -8.776)" style="fill:#57a4ff"/>
    <path data-name="Path 147540" d="m19.825 44.236-.272 2.316 1.817.9 1.817-.9-.272-2.316L21.37 43z" transform="translate(-3.516 -9.548)" style="fill:#ed5575"/>
    <path data-name="Path 147541" d="m15.295 45.78.272-2.316L13.4 45.2 11.913 40H8.942A5.942 5.942 0 0 0 3 45.942V55.6h11.884l-.391-2.987z" transform="translate(.743 -8.776)" style="fill:#d1e7f8"/>
    <path data-name="Path 147542" d="m22.91 47.782-1.817.9-1.817-.9-.8 6.83.391 2.987h4.456l.393-2.975z" transform="translate(-3.238 -10.778)" style="fill:#ed5575"/>
    <path data-name="Path 147543" d="m18.654 43.464 1.546-1.236L17.228 40H15l1.485 5.2z" transform="translate(-2.344 -8.776)" style="fill:#57a4ff"/>
    <path data-name="Path 147544" d="M23.942 39.013v-2.851a7.407 7.407 0 0 1-5.927.007c0 1.574-.015 2.843-.015 2.843l2.971 2.228z" transform="translate(-3.116 -7.788)" style="fill:#ffd39f"/>
    <path data-name="Path 147545" d="M9 23v.743a2.228 2.228 0 0 0 2.228 2.228V23z" transform="translate(-.801 -4.402)" style="fill:#ffd39f"/>
    <path data-name="Path 147546" d="M32 25.971a2.228 2.228 0 0 0 2.228-2.228V23H32z" transform="translate(-6.718 -4.402)" style="fill:#ffd39f"/>
    <path data-name="Path 147547" d="M12 23v2.971a7.427 7.427 0 0 0 14.855 0V23z" transform="translate(-1.573 -4.402)" style="fill:#ffd39f"/>
    <path data-name="Path 147548" d="M50.369 33.456V29H37v23.768h17.826V33.456z" transform="translate(-8.004 -5.946)" style="fill:#ffdaaa"/>
    <path data-name="Path 147549" d="M55.913 35v10.4A8.913 8.913 0 0 1 47 54.311h10.4V35z" transform="translate(-10.577 -7.49)" style="fill:#ffc477"/>
    <path data-name="Path 147550" d="M55 29v4.456h4.456v-.034L55.129 29z" transform="translate(-12.635 -5.946)" style="fill:#ed5575"/>
    <g data-name="Group 145842">
        <path data-name="Path 147552" d="M12.743 18.971h5.2a.743.743 0 0 0 .743-.743v-.743h1.484v.743a.743.743 0 0 0 .743.743h5.2a.743.743 0 0 0 0-1.485h-4.457v-.743a.743.743 0 0 0-.743-.743h-2.971a.743.743 0 0 0-.743.743v.743h-4.456a.743.743 0 1 0 0 1.485z" transform="translate(-1.573 -2.602)" style="fill:#333a60"/>
        <path data-name="Path 147553" d="m46.349 25.953-4.323-4.419a.759.759 0 0 0-.535-.223H28a.743.743 0 0 0-.743.743v7.821a6.67 6.67 0 0 0-2.228-.394h-4.46V27.84A8.194 8.194 0 0 0 25 21.215a2.971 2.971 0 0 0 2.258-2.874 2.228 2.228 0 1 0 0-4.456A10.35 10.35 0 0 0 19.8 3.916 2.228 2.228 0 0 0 17.6 2h-1.488a2.228 2.228 0 0 0-2.2 1.916 10.35 10.35 0 0 0-7.457 9.968 2.228 2.228 0 1 0 0 4.456 2.971 2.971 0 0 0 2.258 2.874 8.17 8.17 0 0 0 4.442 6.625c0 .646-.007 1.226-.007 1.641H8.685A6.7 6.7 0 0 0 2 36.166v9.656a.743.743 0 0 0 .743.743h43.079a.743.743 0 0 0 .743-.743V26.473a.731.731 0 0 0-.216-.52zm-21.324-6.328V18.34h.743a1.474 1.474 0 0 1-.743 1.285zm-16.34 0a1.474 1.474 0 0 1-.743-1.285h.743zm-2.228-2.77a.743.743 0 1 1 0-1.485.743.743 0 0 0 1.485 0v-1.486a8.87 8.87 0 0 1 3.714-7.242v2.043a.743.743 0 1 0 1.485 0v-2.9c.245-.111.49-.208.743-.3v4.685a.743.743 0 0 0 1.485 0V4.228a.743.743 0 0 1 .743-.743H17.6a.743.743 0 0 1 .743.743v5.942a.743.743 0 0 0 1.485 0V5.483c.253.089.5.186.743.3v2.9a.743.743 0 1 0 1.485 0V6.642a8.87 8.87 0 0 1 3.714 7.242v1.485a.743.743 0 1 0 1.485 0 .743.743 0 1 1 0 1.485zm3.714 3.714V18.34h13.368v2.228a6.685 6.685 0 0 1-13.369 0zm6.685 10.955-2.221-1.671c0-.319 0-.817.007-1.426a8.088 8.088 0 0 0 2.213.312 7.924 7.924 0 0 0 2.23-.32v1.434zm1.018 4.048-1.018.505-1.018-.505.171-1.493.847-.676.847.676zm-3.573.371a.027.027 0 0 0-.007.022l-.794 6.782a.776.776 0 0 0 0 .186l.282 2.147H9.427v-5.2a.743.743 0 0 0-1.485 0v5.2H3.485v-8.914a5.205 5.205 0 0 1 5.2-5.2H11.1l1.33 4.657A.743.743 0 0 0 13.6 36l.758-.6zm.542-2.83-1.293 1.033-.906-3.179h1l2.005 1.508-.78.616zm3.587 11.966h-3.15l-.3-2.251.668-5.689.869.438a.79.79 0 0 0 .668 0l.869-.438.668 5.7zm.416-11.988-.78-.616 2.005-1.508h1l-.906 3.179-1.292-1.032zm8.408 11.988h-1.486v-5.2a.743.743 0 1 0-1.485 0v5.2H19.93l.282-2.132a.775.775 0 0 0 0-.186l-.795-6.8a.027.027 0 0 0-.007-.022l-.06-.539.758.6a.758.758 0 0 0 .46.163.778.778 0 0 0 .223-.037.729.729 0 0 0 .49-.505l1.33-4.657h2.414a5.212 5.212 0 0 1 2.228.512zM42.108 23.74l1.983 2.028h-1.983zm2.971 21.339h-16.34V22.8h11.884v3.71a.743.743 0 0 0 .743.743h3.714z" transform="translate(1 1)" style="fill:#333a60"/>
        <path data-name="Path 147554" d="M41.485 38h-.743a.743.743 0 0 0 0 1.485h.743a.743.743 0 1 0 0-1.485z" transform="translate(-8.776 -8.261)" style="fill:#333a60"/>
        <path data-name="Path 147555" d="M53.913 38h-8.17a.743.743 0 1 0 0 1.485h8.17a.743.743 0 1 0 0-1.485z" transform="translate(-10.062 -8.261)" style="fill:#333a60"/>
        <path data-name="Path 147556" d="M41.485 42h-.743a.743.743 0 1 0 0 1.485h.743a.743.743 0 1 0 0-1.485z" transform="translate(-8.776 -9.29)" style="fill:#333a60"/>
        <path data-name="Path 147557" d="M53.913 42h-8.17a.743.743 0 1 0 0 1.485h8.17a.743.743 0 1 0 0-1.485z" transform="translate(-10.062 -9.29)" style="fill:#333a60"/>
        <path data-name="Path 147558" d="M41.485 46h-.743a.743.743 0 0 0 0 1.485h.743a.743.743 0 1 0 0-1.485z" transform="translate(-8.776 -10.319)" style="fill:#333a60"/>
        <path data-name="Path 147559" d="M53.913 46h-8.17a.743.743 0 1 0 0 1.485h8.17a.743.743 0 1 0 0-1.485z" transform="translate(-10.062 -10.319)" style="fill:#333a60"/>
        <path data-name="Path 147560" d="M41.485 50h-.743a.743.743 0 1 0 0 1.485h.743a.743.743 0 1 0 0-1.485z" transform="translate(-8.776 -11.348)" style="fill:#333a60"/>
        <path data-name="Path 147561" d="M53.913 50h-8.17a.743.743 0 1 0 0 1.485h8.17a.743.743 0 1 0 0-1.485z" transform="translate(-10.062 -11.348)" style="fill:#333a60"/>
        <path data-name="Path 147562" d="M41.485 54h-.743a.743.743 0 0 0 0 1.485h.743a.743.743 0 0 0 0-1.485z" transform="translate(-8.776 -12.377)" style="fill:#333a60"/>
        <path data-name="Path 147563" d="M53.913 54h-8.17a.743.743 0 1 0 0 1.485h8.17a.743.743 0 1 0 0-1.485z" transform="translate(-10.062 -12.377)" style="fill:#333a60"/>
    </g>
</svg>
