<svg xmlns="http://www.w3.org/2000/svg" width="28" height="28" viewBox="0 0 28 28">
    <defs>
        <style>
            .cls-2{fill:#ef5361}.cls-3{fill:#da2a47}.cls-4{fill:#333a60;stroke:#333a60;stroke-width:.4px}.cls-5{fill:#ffc943}.cls-6{fill:#f7b521}.cls-7{fill:#81dafc}.cls-8{fill:#3dbce9}.cls-9{fill:#e8c79c}.cls-10{fill:#d0aa79}
        </style>
    </defs>
    <g id="Event_Planning" transform="translate(-203 -1326)">
        <path id="Rectangle_91" fill="none" d="M0 0h28v28H0z" transform="translate(203 1326)"/>
        <g id="garlands" transform="translate(204.002 1304.361)">
            <path id="Path_12677" d="M95.53 31.336A55.554 55.554 0 0 0 99 36.181a56.7 56.7 0 0 0 1.1-5.859 40.118 40.118 0 0 1-4.566 1.014z" class="cls-2" transform="translate(-76.128 -3.023)"/>
            <path id="Path_12678" d="M111.038 30.325a56.687 56.687 0 0 1-1.1 5.859q-.344-.43-.678-.865.582-2.383.95-4.768.416-.109.828-.226z" class="cls-3" transform="translate(-87.069 -3.025)"/>
            <path id="Path_12679" d="M98.2 35.587a.2.2 0 0 1-.159-.076 55.943 55.943 0 0 1-3.48-4.862.2.2 0 0 1 .139-.31 40.073 40.073 0 0 0 4.543-1.009.2.2 0 0 1 .256.222 57.113 57.113 0 0 1-1.1 5.879.2.2 0 0 1-.2.155zm-3.13-4.9c.934 1.448 1.952 2.872 3.029 4.24.4-1.7.719-3.42.956-5.126a40.526 40.526 0 0 1-3.984.889z" class="cls-4" transform="translate(-75.331 -2.227)"/>
            <path id="Path_12680" d="M67.5 36.436a56.115 56.115 0 0 0 2.733 5.289 56.508 56.508 0 0 0 1.907-5.641 40.128 40.128 0 0 1-4.639.352z" class="cls-5" transform="translate(-53.791 -7.615)"/>
            <path id="Path_12681" d="M80.718 36.089a56.476 56.476 0 0 1-1.908 5.64q-.278-.475-.546-.953.91-2.275 1.608-4.583.423-.048.846-.1z" class="cls-6" transform="translate(-62.369 -7.619)"/>
            <path id="Path_12682" d="M69.433 41.131a.2.2 0 0 1-.175-.1 56.535 56.535 0 0 1-2.743-5.308.2.2 0 0 1 .182-.287 40.1 40.1 0 0 0 4.617-.35.2.2 0 0 1 .223.256A56.905 56.905 0 0 1 69.622 41a.2.2 0 0 1-.173.127zm-2.421-5.3c.716 1.564 1.517 3.118 2.386 4.627.631-1.623 1.19-3.28 1.663-4.934a40.525 40.525 0 0 1-4.049.307z" class="cls-4" transform="translate(-52.992 -6.818)"/>
            <path id="Path_12683" d="M39.409 36.312a56.487 56.487 0 0 0 1.957 5.624 56.137 56.137 0 0 0 2.686-5.313 40.13 40.13 0 0 1-4.642-.311z" class="cls-7" transform="translate(-31.406 -7.796)"/>
            <path id="Path_12684" d="M50.138 37.781a56.122 56.122 0 0 1-2.687 5.312q-.208-.509-.405-1.02 1.224-2.124 2.242-4.308.425.013.85.016z" class="cls-8" transform="translate(-37.492 -8.954)"/>
            <path id="Path_12685" d="M40.569 41.341h-.014a.2.2 0 0 1-.174-.126 56.919 56.919 0 0 1-1.964-5.645.2.2 0 0 1 .22-.258 40.078 40.078 0 0 0 4.619.309.2.2 0 0 1 .184.284 56.56 56.56 0 0 1-2.7 5.334.2.2 0 0 1-.176.1zm-1.675-5.588c.487 1.65 1.061 3.3 1.706 4.919.855-1.517 1.642-3.077 2.344-4.648a40.519 40.519 0 0 1-4.05-.271z" class="cls-4" transform="translate(-30.61 -6.999)"/>
            <path id="Path_12686" d="M11.7 30.8a56.707 56.707 0 0 0 1.15 5.848 55.6 55.6 0 0 0 3.423-4.875A40.116 40.116 0 0 1 11.7 30.8z" class="cls-9" transform="translate(-9.325 -3.404)"/>
            <path id="Path_12687" d="M19.773 35.061a55.574 55.574 0 0 1-3.424 4.875q-.134-.534-.258-1.068 1.52-1.926 2.84-3.944.42.076.842.137z" class="cls-10" transform="translate(-12.824 -6.689)"/>
            <path id="Path_12688" d="M12.056 36.056a.2.2 0 0 1-.2-.154 57.136 57.136 0 0 1-1.154-5.87.2.2 0 0 1 .255-.223 40.085 40.085 0 0 0 4.55.968.2.2 0 0 1 .142.309 56.036 56.036 0 0 1-3.436 4.893.2.2 0 0 1-.16.078zm-.9-5.775c.252 1.7.589 3.422 1 5.117 1.065-1.378 2.069-2.811 2.99-4.267a40.55 40.55 0 0 1-3.992-.849z" class="cls-4" transform="translate(-8.531 -2.608)"/>
            <path id="Path_12689" d="M13 29.018A40.375 40.375 0 0 1 .136 26.925a.2.2 0 1 1 .13-.386 40.153 40.153 0 0 0 25.463 0 .2.2 0 1 1 .13.386A40.375 40.375 0 0 1 13 29.018z" class="cls-4"/>
            <path id="Path_12690" d="M14.555 67.8a55.553 55.553 0 0 1-3.467 4.844 56.7 56.7 0 0 1-1.1-5.859 40.119 40.119 0 0 0 4.567 1.015z" class="cls-2" transform="translate(-7.962 -29.082)"/>
            <path id="Path_12691" d="M9.984 66.792a56.687 56.687 0 0 0 1.1 5.859q.344-.43.678-.865-.583-2.383-.951-4.769-.411-.108-.827-.225z" class="cls-3" transform="translate(-7.958 -29.085)"/>
            <path id="Path_12692" d="M10.293 72.053a.2.2 0 0 1-.2-.155 57.109 57.109 0 0 1-1.1-5.88.2.2 0 0 1 .257-.218 40.064 40.064 0 0 0 4.543 1.01.2.2 0 0 1 .139.31 55.962 55.962 0 0 1-3.48 4.861.2.2 0 0 1-.158.076zm-.856-5.783c.237 1.706.558 3.427.956 5.126 1.078-1.369 2.095-2.792 3.029-4.241a40.486 40.486 0 0 1-3.986-.885z" class="cls-4" transform="translate(-7.167 -28.285)"/>
            <path id="Path_12693" d="M42.3 72.9a56.116 56.116 0 0 1-2.733 5.289 56.508 56.508 0 0 1-1.907-5.641 40.13 40.13 0 0 0 4.64.352z" class="cls-5" transform="translate(-30.009 -33.675)"/>
            <path id="Path_12694" d="M37.653 72.555a56.477 56.477 0 0 0 1.908 5.64q.278-.475.546-.953-.907-2.274-1.607-4.582-.425-.048-.847-.105z" class="cls-6" transform="translate(-30.007 -33.678)"/>
            <path id="Path_12695" d="M38.771 77.6h-.015a.2.2 0 0 1-.173-.127 56.927 56.927 0 0 1-1.913-5.662.2.2 0 0 1 .041-.187.206.206 0 0 1 .18-.068 40.042 40.042 0 0 0 4.617.35.2.2 0 0 1 .182.287 56.561 56.561 0 0 1-2.743 5.307.2.2 0 0 1-.176.1zM37.144 72c.473 1.654 1.031 3.311 1.663 4.934.869-1.509 1.669-3.062 2.386-4.627A40.507 40.507 0 0 1 37.144 72z" class="cls-4" transform="translate(-29.217 -32.882)"/>
            <path id="Path_12696" d="M70.377 72.779a56.486 56.486 0 0 1-1.956 5.621 56.139 56.139 0 0 1-2.686-5.313 40.128 40.128 0 0 0 4.642-.31z" class="cls-7" transform="translate(-52.385 -33.856)"/>
            <path id="Path_12697" d="M65.73 74.247a56.122 56.122 0 0 0 2.687 5.312q.208-.509.405-1.02-1.222-2.123-2.242-4.308-.425.013-.85.016z" class="cls-8" transform="translate(-52.381 -35.013)"/>
            <path id="Path_12698" d="M67.625 77.81a.2.2 0 0 1-.176-.1 56.524 56.524 0 0 1-2.7-5.333.2.2 0 0 1 .184-.284 40.107 40.107 0 0 0 4.619-.309.2.2 0 0 1 .22.258 56.907 56.907 0 0 1-1.964 5.643.2.2 0 0 1-.174.126zm-2.375-5.317c.7 1.571 1.49 3.132 2.343 4.648.646-1.617 1.219-3.268 1.706-4.919a40.556 40.556 0 0 1-4.049.271z" class="cls-4" transform="translate(-51.589 -33.061)"/>
            <path id="Path_12699" d="M98.359 67.267a56.706 56.706 0 0 1-1.15 5.848 55.6 55.6 0 0 1-3.423-4.875 40.114 40.114 0 0 0 4.573-.974z" class="cls-9" transform="translate(-74.738 -29.464)"/>
            <path id="Path_12700" d="M93.78 71.524A55.575 55.575 0 0 0 97.2 76.4q.134-.534.258-1.068-1.52-1.926-2.84-3.944-.418.071-.838.136z" class="cls-10" transform="translate(-74.734 -32.746)"/>
            <g id="Group_14488" transform="translate(-.002 36.936)">
                <path id="Path_12701" d="M96.409 72.521a.2.2 0 0 1-.16-.078 56.057 56.057 0 0 1-3.436-4.893.2.2 0 0 1 .142-.309 40.039 40.039 0 0 0 4.55-.968.2.2 0 0 1 .255.223 57.136 57.136 0 0 1-1.154 5.87.2.2 0 0 1-.2.154zM93.322 67.6c.921 1.456 1.925 2.889 2.991 4.267.413-1.695.749-3.412 1-5.117a40.519 40.519 0 0 1-3.991.849z" class="cls-4" transform="translate(-73.937 -65.602)"/>
                <path id="Path_12702" d="M13 65.485A40.375 40.375 0 0 1 .136 63.392a.2.2 0 1 1 .13-.386 40.153 40.153 0 0 0 25.463 0 .2.2 0 0 1 .13.386A40.375 40.375 0 0 1 13 65.485z" class="cls-4" transform="translate(.002 -62.996)"/>
            </g>
        </g>
    </g>
</svg>
