<svg xmlns="http://www.w3.org/2000/svg" width="52" height="52" viewBox="0 0 52 52">
    <g data-name="Group 130201">
        <path data-name="Rectangle 70507" style="fill:transparent"  d="M0 0h52v52H0z"/>
        <g transform="translate(2.378 .377)">
            <circle data-name="Ellipse 1908" cx="22.728" cy="22.728" r="22.728" transform="translate(.895 .894)" style="fill:#f7b239"/>
            <circle data-name="Ellipse 1909" cx="14.96" cy="14.96" r="14.96" transform="translate(8.663 8.662)" style="fill:#e09b2d"/>
            <g data-name="Group 130199">
                <path data-name="Path 144249" d="M334.26 188.085a3.935 3.935 0 1 1-7.6 2.037l-.262-.98 3.8-1.018 3.8-1.02z" transform="translate(-295.729 -168.378)" style="fill:#e6e6e6"/>
                <path data-name="Path 144250" d="M100.978 74.961c2.858.766 4.159 5.175 2.907 9.848s-4.08 5.96-6.938 5.195-4.663-3.294-3.411-7.967 4.585-7.837 7.442-7.076z" transform="translate(-85.812 -67.356)" style="fill:#e6e6e6"/>
            </g>
            <g data-name="Group 130200">
                <path data-name="Path 144251" d="M394.4 351a2.011 2.011 0 1 1-3.884 1.041l-3.378-12.608a2.01 2.01 0 1 1 3.884-1.04z" transform="translate(-350.328 -303.18)" style="fill:#f24c8f"/>
                <path data-name="Path 144252" d="M48.284 336.967a2.01 2.01 0 0 1 1.421 2.463l-3.377 12.608A2.011 2.011 0 0 1 42.444 351l3.378-12.607a2.011 2.011 0 0 1 2.462-1.426z" transform="translate(-40.134 -303.179)" style="fill:#f24c8f"/>
            </g>
            <path data-name="Path 144253" d="M20.371 9.91a.9.9 0 0 0 .194-.021 14.28 14.28 0 0 1 5.451-.13.894.894 0 1 0 .3-1.763 16.077 16.077 0 0 0-6.14.147.895.895 0 0 0 .193 1.768z"/>
            <path data-name="Path 144254" d="M33.568 33.568a13.973 13.973 0 0 1-9.946 4.12 14.123 14.123 0 0 1-11.369-5.783.894.894 0 1 0-1.445 1.054 15.918 15.918 0 0 0 12.814 6.517 15.751 15.751 0 0 0 11.211-4.644.894.894 0 1 0-1.265-1.265z"/>
            <path data-name="Path 144255" d="M62.353 38a23.622 23.622 0 1 0-42.366-14.378 23.433 23.433 0 0 0 4.246 13.513l-2.8 10.451a2.905 2.905 0 0 0 2.054 3.558 2.922 2.922 0 0 0 .757.1 2.909 2.909 0 0 0 2.8-2.154l1.869-6.974a23.62 23.62 0 0 0 28.674.547l1.723 6.427a2.909 2.909 0 0 0 2.8 2.154 2.922 2.922 0 0 0 .757-.1 2.905 2.905 0 0 0 2.054-3.558zM25.317 48.627a1.116 1.116 0 1 1-2.156-.578l3.378-12.607a1.118 1.118 0 0 1 1.076-.828 1.125 1.125 0 0 1 .291.039 1.116 1.116 0 0 1 .789 1.367zm18.292-3.172a21.789 21.789 0 0 1-14.187-5.237l1-3.735a2.9 2.9 0 0 0-1.227-3.19l2.573-9.6a6.32 6.32 0 0 0 .857.059 5.46 5.46 0 0 0 3.062-.914 8.548 8.548 0 0 0 3.236-5.15c1.4-5.229-.154-10.036-3.54-10.943s-7.136 2.478-8.537 7.707a8.548 8.548 0 0 0 .227 6.079 5.574 5.574 0 0 0 2.967 2.7l-2.573 9.6a2.9 2.9 0 0 0-2.606 1.99 21.834 21.834 0 1 1 40.579-11.2 21.572 21.572 0 0 1-3.686 12.145l-.211-.789a2.91 2.91 0 0 0-2.657-2.149L56.81 25.08a4.831 4.831 0 0 0 2.573-5.6L56.524 8.808a.894.894 0 0 0-1.728.463l2.364 8.824-2.074.556-2.363-8.824a.894.894 0 0 0-1.728.463l2.364 8.824-2.074.556-2.364-8.824a.894.894 0 0 0-1.728.463l2.859 10.669a4.839 4.839 0 0 0 4.667 3.58c.121 0 .242-.006.363-.015l2.077 7.751a2.9 2.9 0 0 0-1.227 3.189l1.155 4.317a21.855 21.855 0 0 1-13.478 4.654zM31.354 21.784c-2.78-.745-3.767-3.185-2.779-6.872 1-3.747 3.5-6.526 5.7-6.526a2.479 2.479 0 0 1 .645.084c2.339.63 3.38 4.63 2.28 8.752a6.864 6.864 0 0 1-2.5 4.123 3.961 3.961 0 0 1-3.346.439zm23.332-1.174 2.937-.787.031.117a3.041 3.041 0 1 1-5.875 1.574l-.031-.117zm8.4 28.286a1.116 1.116 0 0 1-2.045-.269L57.66 36.019a1.116 1.116 0 1 1 2.156-.578l3.378 12.608a1.108 1.108 0 0 1-.111.851z" transform="translate(-19.987)" style="fill:#111"/>
        </g>
    </g>
</svg>
