<svg version="1.1" id="Layer_1" xmlns="http://www.w3.org/2000/svg" xmlns:xlink="http://www.w3.org/1999/xlink" x="0px" y="0px"
	 width="100%" viewBox="0 0 1080 1080" enable-background="new 0 0 1080 1080" xml:space="preserve">
<path fill="#FFFFFF" opacity="1.000000" stroke="none" 
	d="
M584.000000,1081.000000 
	C389.355743,1081.000000 195.211472,1081.000000 1.033609,1081.000000 
	C1.033609,721.063965 1.033609,361.127899 1.033609,1.095922 
	C360.894470,1.095922 720.788940,1.095922 1080.841797,1.095922 
	C1080.841797,360.999939 1080.841797,720.999939 1080.841797,1081.000000 
	C915.460754,1081.000000 749.980408,1081.000000 584.000000,1081.000000 
M632.667603,539.209351 
	C635.914490,540.113159 639.161316,541.016907 642.725708,542.009094 
	C642.725708,538.273926 642.644409,535.993469 642.742859,533.720825 
	C642.939636,529.178345 639.938782,528.881409 636.819092,529.582886 
	C631.607056,530.754761 631.997009,535.072083 631.223022,538.988464 
	C630.739502,537.193848 629.978271,535.421021 629.835510,533.599670 
	C629.602417,530.625671 629.772461,527.620056 629.772461,524.067139 
	C627.911133,524.760437 627.068237,524.917786 627.063049,525.099121 
	C626.922485,530.006653 626.049866,535.098877 627.088989,539.761475 
	C627.769287,542.813904 630.809448,542.602539 632.667603,539.209351 
M494.450867,443.760529 
	C487.463226,458.856415 487.778168,473.635010 496.027527,488.249725 
	C508.429932,510.222168 520.664978,532.289062 532.999756,554.299805 
	C533.585999,555.345886 534.449097,556.236755 535.366516,557.440430 
	C536.152466,556.324585 536.690552,555.689392 537.089050,554.976257 
	C550.078247,531.733704 563.577576,508.755676 575.848999,485.139648 
	C584.133118,469.197144 582.872986,452.838409 572.286011,437.953430 
	C552.841980,410.615448 510.945312,413.042572 494.450867,443.760529 
M400.981262,476.500488 
	C400.981750,470.833893 400.915222,465.165955 401.025238,459.501495 
	C401.056580,457.887299 401.300659,456.145172 401.964691,454.699432 
	C404.178162,449.880249 408.786499,447.698456 413.906952,448.771271 
	C418.669312,449.769012 422.090546,453.846985 422.159851,459.293488 
	C422.314575,471.458038 422.233582,483.625458 422.278503,495.791626 
	C422.284973,497.545837 422.456848,499.299469 422.548584,500.986694 
	C428.531952,500.986694 433.929565,500.986694 439.707062,500.986694 
	C439.707062,486.767273 439.623322,472.949371 439.745056,459.133301 
	C439.799713,452.932007 444.164124,448.597107 449.977661,448.472076 
	C455.944489,448.343750 460.775421,452.843719 460.912323,459.087006 
	C461.091339,467.249603 460.963959,475.418976 460.966431,483.585419 
	C460.968201,489.368439 460.966766,495.151459 460.966766,501.122742 
	C466.945190,501.122742 472.341461,501.122742 477.985016,501.122742 
	C477.985016,485.708160 478.802216,470.523071 477.759918,455.466705 
	C476.673065,439.766266 461.845825,428.841400 446.257721,431.469025 
	C440.743591,432.398499 435.581329,435.415314 429.809662,437.653168 
	C421.001892,430.382904 410.543274,428.429932 399.368408,433.902374 
	C387.974548,439.481995 383.204132,449.086029 383.639435,461.625885 
	C383.882141,468.617218 383.679688,475.624023 383.678833,482.623840 
	C383.678101,488.743073 383.678711,494.862305 383.678711,501.143005 
	C389.668213,501.143005 395.094360,501.143005 400.981232,501.143005 
	C400.981232,493.095795 400.981232,485.298035 400.981262,476.500488 
M584.110046,446.162720 
	C583.742798,449.101624 584.796448,450.313202 587.984924,450.232666 
	C595.975159,450.030853 603.974243,450.148285 611.969482,450.188385 
	C614.327209,450.200195 616.684143,450.381348 620.240173,450.537567 
	C618.110168,452.570068 616.992981,453.718933 615.790527,454.770355 
	C606.769348,462.658325 597.699768,470.491241 588.712646,478.417664 
	C584.501221,482.132019 582.600586,486.877930 584.278870,492.340668 
	C585.932190,497.721954 590.467468,500.089142 595.652405,500.774750 
	C600.083740,501.360687 604.611816,501.334778 609.098328,501.361389 
	C621.045471,501.432251 632.993347,501.385468 645.576538,501.385468 
	C645.576538,496.583679 645.411255,492.292969 645.630310,488.021973 
	C645.796997,484.773438 644.718262,483.645233 641.376465,483.732086 
	C633.053223,483.948395 624.720398,483.828583 616.391785,483.786011 
	C614.704041,483.777374 613.017639,483.514862 611.330627,483.369385 
	C610.997070,482.779358 610.663513,482.189331 610.330017,481.599304 
	C611.773926,480.589874 613.316040,479.694702 614.645874,478.552460 
	C623.484192,470.960571 632.376221,463.426117 641.041016,455.639587 
	C645.100830,451.991272 647.255798,447.305908 645.434265,441.700134 
	C643.661133,436.243042 639.207336,433.944183 633.981201,433.422516 
	C628.533142,432.878693 623.018616,432.901886 617.531921,432.864349 
	C606.565735,432.789307 595.598755,432.842102 584.111328,432.842102 
	C584.111328,437.318604 584.111328,441.281982 584.110046,446.162720 
M694.647766,486.065155 
	C701.054626,498.616241 712.058777,503.595734 727.450378,500.734070 
	C727.450378,495.390808 727.450378,489.998047 727.450378,484.047974 
	C725.505188,484.047974 723.884766,484.046661 722.264282,484.048187 
	C712.048767,484.057770 711.647644,483.776611 708.356567,474.243652 
	C704.069824,461.826447 699.852905,449.384247 695.416565,437.020721 
	C694.845154,435.428131 693.240234,433.175018 691.945618,433.055725 
	C686.918091,432.592407 681.822510,432.867065 675.840942,432.867065 
	C682.219971,450.981384 688.277832,468.183899 694.647766,486.065155 
M667.757812,501.658264 
	C668.399658,500.100189 669.521851,498.564362 669.595032,496.979980 
	C669.833069,491.831268 669.688171,486.664795 669.688721,481.505157 
	C669.689636,473.071381 669.689026,464.637604 669.689026,456.317383 
	C663.655151,456.317383 658.246643,456.317383 652.920288,456.317383 
	C652.920288,471.669769 652.920288,486.670868 652.920288,501.912933 
	C657.938599,501.912933 662.418335,501.912933 667.757812,501.658264 
M568.456177,563.707031 
	C550.003845,567.460449 531.423828,567.907227 512.823425,565.291870 
	C506.281342,564.372009 499.845917,562.562927 493.452240,560.826843 
	C492.157684,560.475403 490.981689,558.754883 490.364594,557.388489 
	C490.170441,556.958496 491.815094,555.165222 492.898346,554.776428 
	C500.722687,551.967773 508.618958,549.359375 516.492432,546.687561 
	C516.636047,547.117249 516.779663,547.546997 516.923340,547.976746 
	C515.911560,548.031921 514.882812,547.988159 513.890686,548.158020 
	C506.454529,549.431458 498.945251,550.426697 491.646851,552.258179 
	C489.640350,552.761597 487.016632,555.765625 486.957916,557.691772 
	C486.897797,559.663025 489.266998,562.270142 491.244385,563.601379 
	C493.798584,565.320923 496.935791,566.375366 499.966431,567.153259 
	C518.105164,571.808960 536.543213,572.310181 554.959778,569.704651 
	C562.772888,568.599365 570.562073,566.310059 577.941406,563.466797 
	C584.135803,561.080139 584.254028,558.415466 579.737854,553.003174 
	C582.316467,557.026489 580.528076,559.416260 577.322144,560.894531 
	C574.778137,562.067566 571.958313,562.642700 568.456177,563.707031 
M668.450073,433.037720 
	C663.951843,429.631927 658.508972,429.239594 654.696106,432.046356 
	C650.503784,435.132446 648.987122,440.485138 650.926086,445.351624 
	C652.899597,450.304443 657.323975,452.794647 662.890625,452.085693 
	C671.223694,451.024353 674.360474,441.432404 668.450073,433.037720 
M679.816956,541.496155 
	C680.619324,541.665833 681.421692,541.835510 681.730408,541.900818 
	C681.965454,543.446167 682.162598,544.742249 682.359802,546.038330 
	C683.928711,545.134155 686.610657,544.457397 686.850891,543.281738 
	C687.486877,540.168762 687.066528,536.839905 687.066528,533.596985 
	C686.572632,533.439575 686.078735,533.282227 685.584839,533.124817 
	C684.942566,534.108521 684.387024,535.165527 683.634460,536.055969 
	C682.837646,536.998718 681.853394,537.783081 680.950928,538.636597 
	C680.189331,537.507568 678.981323,536.464600 678.744080,535.234497 
	C677.757568,530.118408 679.205078,528.727051 685.809814,527.468445 
	C684.156189,526.341614 681.951721,524.982971 680.552612,525.563843 
	C678.452637,526.435730 675.804993,528.422302 675.374573,530.372803 
	C674.489868,534.381653 673.492371,539.192688 679.816956,541.496155 
M574.153015,525.535034 
	C566.970581,528.246643 566.861145,535.316772 569.707458,538.681519 
	C572.217651,541.648926 575.745667,542.445312 579.168884,540.695496 
	C582.965210,538.755005 583.469482,534.945374 582.748840,531.175537 
	C581.954224,527.019226 579.296143,524.890137 574.153015,525.535034 
M657.463684,539.959290 
	C660.497925,540.497925 663.532104,541.036621 667.408630,541.724854 
	C666.244873,535.486511 668.090698,529.909241 665.616821,524.269165 
	C663.658325,526.595215 662.758911,528.637329 661.269226,529.254517 
	C656.313049,531.308044 655.446289,534.670410 657.463684,539.959290 
M717.106445,536.854492 
	C716.461609,532.659790 718.257996,528.040405 716.134155,524.511047 
	C713.516968,526.751770 711.653687,528.619934 709.523987,530.106384 
	C706.343933,532.325867 706.303406,535.383545 707.112854,538.519714 
	C707.933105,541.697937 710.436523,541.615417 713.118835,541.053162 
	C714.434753,540.777222 715.856323,541.005249 717.557312,541.005249 
	C717.386902,539.604492 717.270508,538.647400 717.106445,536.854492 
M651.241272,533.421814 
	C651.351135,534.404968 651.339417,535.421387 651.597473,536.364014 
	C652.059692,538.052185 652.684204,539.695984 653.240845,541.358337 
	C653.814453,539.682068 654.474609,538.028442 654.922424,536.319214 
	C655.124023,535.549744 654.976990,534.658508 654.859009,533.841187 
	C654.346619,530.291687 652.789062,528.306885 648.780151,529.588806 
	C647.456726,530.012024 645.964844,529.908264 644.218079,530.077637 
	C644.527039,533.988525 644.817200,537.661804 645.107361,541.335083 
	C645.700073,541.458008 646.292786,541.580872 646.885437,541.703796 
	C647.256714,540.171692 647.416138,538.543518 648.056152,537.133423 
	C648.757324,535.588684 649.902039,534.245361 651.241272,533.421814 
M719.065796,537.964294 
	C721.864624,542.421082 725.102112,542.877136 727.852051,539.128113 
	C726.342285,538.914917 724.869995,538.706970 722.060669,538.310242 
	C724.082947,537.296265 725.298218,537.092896 725.663086,536.424988 
	C726.619629,534.674011 727.205200,532.720459 727.938538,530.847534 
	C725.824951,530.603699 722.803162,529.394226 721.803345,530.334595 
	C720.161194,531.878906 719.830566,534.817749 719.065796,537.964294 
M591.243530,535.300842 
	C590.704163,536.457031 590.164734,537.613220 589.625366,538.769470 
	C589.301819,538.656494 588.978210,538.543579 588.654663,538.430603 
	C588.062195,535.508728 587.469788,532.586853 586.877319,529.664978 
	C586.427124,529.785156 585.976868,529.905334 585.526611,530.025513 
	C582.767761,539.741943 584.374390,541.581299 595.175476,540.532104 
	C593.906372,536.974426 596.738281,532.525085 591.608093,529.705627 
	C591.505005,531.298767 591.401855,532.891907 591.243530,535.300842 
M692.088379,532.759399 
	C691.631104,531.685730 691.173828,530.612122 690.716553,529.538452 
	C690.120239,530.515625 689.106689,531.447266 688.994141,532.477295 
	C688.144714,540.251404 688.631531,540.712646 696.721680,540.836609 
	C697.488098,540.848328 698.252014,541.026123 699.404968,541.177856 
	C699.151184,537.039429 698.920288,533.273315 698.689331,529.507263 
	C698.121704,529.389893 697.554016,529.272522 696.986389,529.155090 
	C696.078979,532.419556 695.171509,535.683960 694.264099,538.948364 
	C693.697815,538.872131 693.131531,538.795898 692.565247,538.719666 
	C692.410706,537.008789 692.256165,535.297974 692.088379,532.759399 
M620.540466,541.759277 
	C626.387939,539.684692 626.499512,538.123840 621.046082,533.034546 
	C622.100830,532.323730 623.133118,531.627930 624.165466,530.932190 
	C623.989441,530.369080 623.813477,529.805908 623.637451,529.242798 
	C621.589417,529.831360 619.541321,530.419983 617.493225,531.008606 
	C618.304016,533.489929 619.114807,535.971252 619.982788,538.627808 
	C619.506409,538.694641 618.253479,538.870422 617.000549,539.046204 
	C616.914673,539.380127 616.828796,539.714111 616.742920,540.048035 
	C617.763977,540.588257 618.785034,541.128479 620.540466,541.759277 
M602.040649,532.912048 
	C602.696472,532.004883 603.352234,531.097717 604.588989,529.386902 
	C601.194153,529.827759 599.175354,530.089905 597.322083,530.330627 
	C597.322083,533.359863 597.185181,536.003601 597.397705,538.619019 
	C597.470337,539.512512 598.420105,540.334656 598.969055,541.189392 
	C599.568970,540.393250 600.479675,539.674988 600.702576,538.784485 
	C601.137939,537.044800 601.188965,535.208923 602.040649,532.912048 
M704.784973,532.178528 
	C704.135071,530.959961 703.485229,529.741394 702.507629,527.908325 
	C699.711792,536.338745 701.037048,540.981995 705.479736,540.655762 
	C705.258118,538.099304 705.036682,535.544434 704.784973,532.178528 
M611.671631,529.627563 
	C611.695190,532.765137 611.627136,535.908081 611.809509,539.036438 
	C611.852661,539.777588 612.736145,540.469788 613.233093,541.184509 
	C613.830078,540.414978 614.901245,539.669739 614.941956,538.871765 
	C615.118713,535.413452 615.095337,531.934387 614.912903,528.475098 
	C614.864014,527.549683 613.995850,526.667480 613.503845,525.765503 
	C612.899597,526.731384 612.295410,527.697327 611.671631,529.627563 
z"/>
<path fill="#F93939" opacity="1.000000" stroke="none" 
	d="
M494.627441,443.439514 
	C510.945312,413.042572 552.841980,410.615448 572.286011,437.953430 
	C582.872986,452.838409 584.133118,469.197144 575.848999,485.139648 
	C563.577576,508.755676 550.078247,531.733704 537.089050,554.976257 
	C536.690552,555.689392 536.152466,556.324585 535.366516,557.440430 
	C534.449097,556.236755 533.585999,555.345886 532.999756,554.299805 
	C520.664978,532.289062 508.429932,510.222168 496.027527,488.249725 
	C487.778168,473.635010 487.463226,458.856415 494.627441,443.439514 
M555.459167,471.620636 
	C555.738770,470.662018 556.071960,469.715393 556.289856,468.742950 
	C559.089661,456.249786 550.997131,444.664276 538.036926,442.590485 
	C526.229980,440.701202 514.871704,449.775909 513.733276,462.007904 
	C512.779785,472.253174 519.460205,482.089325 529.274475,484.890503 
	C539.721130,487.872192 549.698914,483.058228 555.459167,471.620636 
z"/>
<path fill="#1C6E96" opacity="1.000000" stroke="none" 
	d="
M400.981262,477.000366 
	C400.981232,485.298035 400.981232,493.095795 400.981232,501.143005 
	C395.094360,501.143005 389.668213,501.143005 383.678711,501.143005 
	C383.678711,494.862305 383.678101,488.743073 383.678833,482.623840 
	C383.679688,475.624023 383.882141,468.617218 383.639435,461.625885 
	C383.204132,449.086029 387.974548,439.481995 399.368408,433.902374 
	C410.543274,428.429932 421.001892,430.382904 429.809662,437.653168 
	C435.581329,435.415314 440.743591,432.398499 446.257721,431.469025 
	C461.845825,428.841400 476.673065,439.766266 477.759918,455.466705 
	C478.802216,470.523071 477.985016,485.708160 477.985016,501.122742 
	C472.341461,501.122742 466.945190,501.122742 460.966766,501.122742 
	C460.966766,495.151459 460.968201,489.368439 460.966431,483.585419 
	C460.963959,475.418976 461.091339,467.249603 460.912323,459.087006 
	C460.775421,452.843719 455.944489,448.343750 449.977661,448.472076 
	C444.164124,448.597107 439.799713,452.932007 439.745056,459.133301 
	C439.623322,472.949371 439.707062,486.767273 439.707062,500.986694 
	C433.929565,500.986694 428.531952,500.986694 422.548584,500.986694 
	C422.456848,499.299469 422.284973,497.545837 422.278503,495.791626 
	C422.233582,483.625458 422.314575,471.458038 422.159851,459.293488 
	C422.090546,453.846985 418.669312,449.769012 413.906952,448.771271 
	C408.786499,447.698456 404.178162,449.880249 401.964691,454.699432 
	C401.300659,456.145172 401.056580,457.887299 401.025238,459.501495 
	C400.915222,465.165955 400.981750,470.833893 400.981262,477.000366 
z"/>
<path fill="#1C6E96" opacity="1.000000" stroke="none" 
	d="
M584.110718,445.704041 
	C584.111328,441.281982 584.111328,437.318604 584.111328,432.842102 
	C595.598755,432.842102 606.565735,432.789307 617.531921,432.864349 
	C623.018616,432.901886 628.533142,432.878693 633.981201,433.422516 
	C639.207336,433.944183 643.661133,436.243042 645.434265,441.700134 
	C647.255798,447.305908 645.100830,451.991272 641.041016,455.639587 
	C632.376221,463.426117 623.484192,470.960571 614.645874,478.552460 
	C613.316040,479.694702 611.773926,480.589874 610.330017,481.599304 
	C610.663513,482.189331 610.997070,482.779358 611.330627,483.369385 
	C613.017639,483.514862 614.704041,483.777374 616.391785,483.786011 
	C624.720398,483.828583 633.053223,483.948395 641.376465,483.732086 
	C644.718262,483.645233 645.796997,484.773438 645.630310,488.021973 
	C645.411255,492.292969 645.576538,496.583679 645.576538,501.385468 
	C632.993347,501.385468 621.045471,501.432251 609.098328,501.361389 
	C604.611816,501.334778 600.083740,501.360687 595.652405,500.774750 
	C590.467468,500.089142 585.932190,497.721954 584.278870,492.340668 
	C582.600586,486.877930 584.501221,482.132019 588.712646,478.417664 
	C597.699768,470.491241 606.769348,462.658325 615.790527,454.770355 
	C616.992981,453.718933 618.110168,452.570068 620.240173,450.537567 
	C616.684143,450.381348 614.327209,450.200195 611.969482,450.188385 
	C603.974243,450.148285 595.975159,450.030853 587.984924,450.232666 
	C584.796448,450.313202 583.742798,449.101624 584.110718,445.704041 
z"/>
<path fill="#1C6E96" opacity="1.000000" stroke="none" 
	d="
M694.491760,485.725769 
	C688.277832,468.183899 682.219971,450.981384 675.840942,432.867065 
	C681.822510,432.867065 686.918091,432.592407 691.945618,433.055725 
	C693.240234,433.175018 694.845154,435.428131 695.416565,437.020721 
	C699.852905,449.384247 704.069824,461.826447 708.356567,474.243652 
	C711.647644,483.776611 712.048767,484.057770 722.264282,484.048187 
	C723.884766,484.046661 725.505188,484.047974 727.450378,484.047974 
	C727.450378,489.998047 727.450378,495.390808 727.450378,500.734070 
	C712.058777,503.595734 701.054626,498.616241 694.491760,485.725769 
z"/>
<path fill="#1C6E96" opacity="1.000000" stroke="none" 
	d="
M667.328003,501.785583 
	C662.418335,501.912933 657.938599,501.912933 652.920288,501.912933 
	C652.920288,486.670868 652.920288,471.669769 652.920288,456.317383 
	C658.246643,456.317383 663.655151,456.317383 669.689026,456.317383 
	C669.689026,464.637604 669.689636,473.071381 669.688721,481.505157 
	C669.688171,486.664795 669.833069,491.831268 669.595032,496.979980 
	C669.521851,498.564362 668.399658,500.100189 667.328003,501.785583 
z"/>
<path fill="#F93939" opacity="1.000000" stroke="none" 
	d="
M568.858582,563.595215 
	C571.958313,562.642700 574.778137,562.067566 577.322144,560.894531 
	C580.528076,559.416260 582.316467,557.026489 579.737854,553.003174 
	C584.254028,558.415466 584.135803,561.080139 577.941406,563.466797 
	C570.562073,566.310059 562.772888,568.599365 554.959778,569.704651 
	C536.543213,572.310181 518.105164,571.808960 499.966431,567.153259 
	C496.935791,566.375366 493.798584,565.320923 491.244385,563.601379 
	C489.266998,562.270142 486.897797,559.663025 486.957916,557.691772 
	C487.016632,555.765625 489.640350,552.761597 491.646851,552.258179 
	C498.945251,550.426697 506.454529,549.431458 513.890686,548.158020 
	C514.882812,547.988159 515.911560,548.031921 516.923340,547.976746 
	C516.779663,547.546997 516.636047,547.117249 516.492432,546.687561 
	C508.618958,549.359375 500.722687,551.967773 492.898346,554.776428 
	C491.815094,555.165222 490.170441,556.958496 490.364594,557.388489 
	C490.981689,558.754883 492.157684,560.475403 493.452240,560.826843 
	C499.845917,562.562927 506.281342,564.372009 512.823425,565.291870 
	C531.423828,567.907227 550.003845,567.460449 568.858582,563.595215 
z"/>
<path fill="#1C6E96" opacity="1.000000" stroke="none" 
	d="
M668.702637,433.289124 
	C674.360474,441.432404 671.223694,451.024353 662.890625,452.085693 
	C657.323975,452.794647 652.899597,450.304443 650.926086,445.351624 
	C648.987122,440.485138 650.503784,435.132446 654.696106,432.046356 
	C658.508972,429.239594 663.951843,429.631927 668.702637,433.289124 
z"/>
<path fill="#F93939" opacity="1.000000" stroke="none" 
	d="
M679.452271,541.411316 
	C673.492371,539.192688 674.489868,534.381653 675.374573,530.372803 
	C675.804993,528.422302 678.452637,526.435730 680.552612,525.563843 
	C681.951721,524.982971 684.156189,526.341614 685.809814,527.468445 
	C679.205078,528.727051 677.757568,530.118408 678.744080,535.234497 
	C678.981323,536.464600 680.189331,537.507568 680.950928,538.636597 
	C681.853394,537.783081 682.837646,536.998718 683.634460,536.055969 
	C684.387024,535.165527 684.942566,534.108521 685.584839,533.124817 
	C686.078735,533.282227 686.572632,533.439575 687.066528,533.596985 
	C687.066528,536.839905 687.486877,540.168762 686.850891,543.281738 
	C686.610657,544.457397 683.928711,545.134155 682.359802,546.038330 
	C682.162598,544.742249 681.965454,543.446167 681.730408,541.900818 
	C681.421692,541.835510 680.619324,541.665833 679.452271,541.411316 
z"/>
<path fill="#F93939" opacity="1.000000" stroke="none" 
	d="
M574.522339,525.454956 
	C579.296143,524.890137 581.954224,527.019226 582.748840,531.175537 
	C583.469482,534.945374 582.965210,538.755005 579.168884,540.695496 
	C575.745667,542.445312 572.217651,541.648926 569.707458,538.681519 
	C566.861145,535.316772 566.970581,528.246643 574.522339,525.454956 
M572.858093,532.578613 
	C572.867371,533.241821 572.622192,534.077332 572.933044,534.536255 
	C573.920166,535.993591 575.114685,537.310486 576.229065,538.681580 
	C577.174011,537.325378 578.953125,535.919495 578.875977,534.624207 
	C578.748108,532.477966 577.425415,530.402954 576.606140,528.297913 
	C575.370911,529.445312 574.135742,530.592773 572.858093,532.578613 
z"/>
<path fill="#F93939" opacity="1.000000" stroke="none" 
	d="
M657.296204,539.616333 
	C655.446289,534.670410 656.313049,531.308044 661.269226,529.254517 
	C662.758911,528.637329 663.658325,526.595215 665.616821,524.269165 
	C668.090698,529.909241 666.244873,535.486511 667.408630,541.724854 
	C663.532104,541.036621 660.497925,540.497925 657.296204,539.616333 
z"/>
<path fill="#F93939" opacity="1.000000" stroke="none" 
	d="
M632.088623,539.080566 
	C631.997009,535.072083 631.607056,530.754761 636.819092,529.582886 
	C639.938782,528.881409 642.939636,529.178345 642.742859,533.720825 
	C642.644409,535.993469 642.725708,538.273926 642.725708,542.009094 
	C639.161316,541.016907 635.914490,540.113159 632.354309,539.122192 
	C632.041016,539.034973 632.088623,539.080566 632.088623,539.080566 
z"/>
<path fill="#F93939" opacity="1.000000" stroke="none" 
	d="
M717.130249,537.272400 
	C717.270508,538.647400 717.386902,539.604492 717.557312,541.005249 
	C715.856323,541.005249 714.434753,540.777222 713.118835,541.053162 
	C710.436523,541.615417 707.933105,541.697937 707.112854,538.519714 
	C706.303406,535.383545 706.343933,532.325867 709.523987,530.106384 
	C711.653687,528.619934 713.516968,526.751770 716.134155,524.511047 
	C718.257996,528.040405 716.461609,532.659790 717.130249,537.272400 
M711.427551,538.758606 
	C714.308960,537.085083 714.237244,534.824829 712.880798,531.901733 
	C709.248474,533.424133 709.744934,535.824707 711.427551,538.758606 
z"/>
<path fill="#F93939" opacity="1.000000" stroke="none" 
	d="
M651.047363,533.118042 
	C649.902039,534.245361 648.757324,535.588684 648.056152,537.133423 
	C647.416138,538.543518 647.256714,540.171692 646.885437,541.703796 
	C646.292786,541.580872 645.700073,541.458008 645.107361,541.335083 
	C644.817200,537.661804 644.527039,533.988525 644.218079,530.077637 
	C645.964844,529.908264 647.456726,530.012024 648.780151,529.588806 
	C652.789062,528.306885 654.346619,530.291687 654.859009,533.841187 
	C654.976990,534.658508 655.124023,535.549744 654.922424,536.319214 
	C654.474609,538.028442 653.814453,539.682068 653.240845,541.358337 
	C652.684204,539.695984 652.059692,538.052185 651.597473,536.364014 
	C651.339417,535.421387 651.351135,534.404968 651.047363,533.118042 
z"/>
<path fill="#F93939" opacity="1.000000" stroke="none" 
	d="
M719.006348,537.566406 
	C719.830566,534.817749 720.161194,531.878906 721.803345,530.334595 
	C722.803162,529.394226 725.824951,530.603699 727.938538,530.847534 
	C727.205200,532.720459 726.619629,534.674011 725.663086,536.424988 
	C725.298218,537.092896 724.082947,537.296265 722.060669,538.310242 
	C724.869995,538.706970 726.342285,538.914917 727.852051,539.128113 
	C725.102112,542.877136 721.864624,542.421082 719.006348,537.566406 
z"/>
<path fill="#F93939" opacity="1.000000" stroke="none" 
	d="
M591.271118,534.892944 
	C591.401855,532.891907 591.505005,531.298767 591.608093,529.705627 
	C596.738281,532.525085 593.906372,536.974426 595.175476,540.532104 
	C584.374390,541.581299 582.767761,539.741943 585.526611,530.025513 
	C585.976868,529.905334 586.427124,529.785156 586.877319,529.664978 
	C587.469788,532.586853 588.062195,535.508728 588.654663,538.430603 
	C588.978210,538.543579 589.301819,538.656494 589.625366,538.769470 
	C590.164734,537.613220 590.704163,536.457031 591.271118,534.892944 
z"/>
<path fill="#F93939" opacity="1.000000" stroke="none" 
	d="
M692.094971,533.173218 
	C692.256165,535.297974 692.410706,537.008789 692.565247,538.719666 
	C693.131531,538.795898 693.697815,538.872131 694.264099,538.948364 
	C695.171509,535.683960 696.078979,532.419556 696.986389,529.155090 
	C697.554016,529.272522 698.121704,529.389893 698.689331,529.507263 
	C698.920288,533.273315 699.151184,537.039429 699.404968,541.177856 
	C698.252014,541.026123 697.488098,540.848328 696.721680,540.836609 
	C688.631531,540.712646 688.144714,540.251404 688.994141,532.477295 
	C689.106689,531.447266 690.120239,530.515625 690.716553,529.538452 
	C691.173828,530.612122 691.631104,531.685730 692.094971,533.173218 
z"/>
<path fill="#F93939" opacity="1.000000" stroke="none" 
	d="
M632.021606,539.008362 
	C630.809448,542.602539 627.769287,542.813904 627.088989,539.761475 
	C626.049866,535.098877 626.922485,530.006653 627.063049,525.099121 
	C627.068237,524.917786 627.911133,524.760437 629.772461,524.067139 
	C629.772461,527.620056 629.602417,530.625671 629.835510,533.599670 
	C629.978271,535.421021 630.739502,537.193848 631.655823,539.034546 
	C632.088623,539.080566 632.041016,539.034973 632.021606,539.008362 
z"/>
<path fill="#F93939" opacity="1.000000" stroke="none" 
	d="
M620.173279,541.713989 
	C618.785034,541.128479 617.763977,540.588257 616.742920,540.048035 
	C616.828796,539.714111 616.914673,539.380127 617.000549,539.046204 
	C618.253479,538.870422 619.506409,538.694641 619.982788,538.627808 
	C619.114807,535.971252 618.304016,533.489929 617.493286,531.008606 
	C619.541321,530.419983 621.589417,529.831360 623.637451,529.242798 
	C623.813477,529.805908 623.989441,530.369080 624.165466,530.932190 
	C623.133118,531.627930 622.100830,532.323730 621.046082,533.034546 
	C626.499512,538.123840 626.387939,539.684692 620.173279,541.713989 
z"/>
<path fill="#F93939" opacity="1.000000" stroke="none" 
	d="
M601.719849,533.162476 
	C601.188965,535.208923 601.137939,537.044800 600.702576,538.784485 
	C600.479675,539.674988 599.568970,540.393250 598.969055,541.189392 
	C598.420105,540.334656 597.470337,539.512512 597.397705,538.619019 
	C597.185181,536.003601 597.322083,533.359863 597.322083,530.330627 
	C599.175354,530.089905 601.194153,529.827759 604.588989,529.386902 
	C603.352234,531.097717 602.696472,532.004883 601.719849,533.162476 
z"/>
<path fill="#F93939" opacity="1.000000" stroke="none" 
	d="
M704.800110,532.584045 
	C705.036682,535.544434 705.258118,538.099304 705.479736,540.655762 
	C701.037048,540.981995 699.711792,536.338745 702.507629,527.908325 
	C703.485229,529.741394 704.135071,530.959961 704.800110,532.584045 
z"/>
<path fill="#F93939" opacity="1.000000" stroke="none" 
	d="
M611.681396,529.145386 
	C612.295410,527.697327 612.899597,526.731384 613.503845,525.765503 
	C613.995850,526.667480 614.864014,527.549683 614.912903,528.475098 
	C615.095337,531.934387 615.118713,535.413452 614.941956,538.871765 
	C614.901245,539.669739 613.830078,540.414978 613.233093,541.184509 
	C612.736145,540.469788 611.852661,539.777588 611.809509,539.036438 
	C611.627136,535.908081 611.695190,532.765137 611.681396,529.145386 
z"/>
<path fill="#FFFFFF" opacity="1.000000" stroke="none" 
	d="
M555.341980,471.995483 
	C549.698914,483.058228 539.721130,487.872192 529.274475,484.890503 
	C519.460205,482.089325 512.779785,472.253174 513.733276,462.007904 
	C514.871704,449.775909 526.229980,440.701202 538.036926,442.590485 
	C550.997131,444.664276 559.089661,456.249786 556.289856,468.742950 
	C556.071960,469.715393 555.738770,470.662018 555.341980,471.995483 
z"/>
<path fill="#FFFFFF" opacity="1.000000" stroke="none" 
	d="
M572.879272,532.159424 
	C574.135742,530.592773 575.370911,529.445312 576.606140,528.297913 
	C577.425415,530.402954 578.748108,532.477966 578.875977,534.624207 
	C578.953125,535.919495 577.174011,537.325378 576.229065,538.681580 
	C575.114685,537.310486 573.920166,535.993591 572.933044,534.536255 
	C572.622192,534.077332 572.867371,533.241821 572.879272,532.159424 
z"/>
<path fill="#FFFFFF" opacity="1.000000" stroke="none" 
	d="
M711.104370,538.577209 
	C709.744934,535.824707 709.248474,533.424133 712.880798,531.901733 
	C714.237244,534.824829 714.308960,537.085083 711.104370,538.577209 
z"/>
</svg>